<svg width="129" height="54" viewBox="0 0 129 54" fill="none" xmlns="http://www.w3.org/2000/svg">
<path d="M29.81 10.24H10.21V21.86H29.25V31.1H10.21V50H0.55V0.999997H29.81V10.24ZM66.1613 50L63.2213 41.18H43.6913L40.7513 50H30.3213L47.4713 0.999997H59.4413L76.6613 50H66.1613ZM46.7713 32.15H60.2113L53.4913 12.13L46.7713 32.15ZM128.292 25.5C128.292 31.8467 126.285 37.3533 122.272 42.02L127.312 47.27L120.452 53.36L115.132 47.83C111.352 49.93 107.245 50.98 102.812 50.98C95.7651 50.98 89.7685 48.53 84.8218 43.63C79.8751 38.6833 77.4018 32.64 77.4018 25.5C77.4018 18.36 79.8751 12.34 84.8218 7.44C89.7685 2.49333 95.7651 0.0199968 102.812 0.0199968C109.858 0.0199968 115.855 2.49333 120.802 7.44C125.795 12.34 128.292 18.36 128.292 25.5ZM102.812 41.53C104.632 41.53 106.452 41.2267 108.272 40.62L100.222 32.22L107.082 26.13L115.692 35.09C117.652 32.29 118.632 29.0933 118.632 25.5C118.632 20.8333 117.115 16.9833 114.082 13.95C111.048 10.9167 107.292 9.4 102.812 9.4C98.3318 9.4 94.5751 10.9167 91.5418 13.95C88.5085 16.9833 86.9918 20.8333 86.9918 25.5C86.9918 30.12 88.5085 33.9467 91.5418 36.98C94.5751 40.0133 98.3318 41.53 102.812 41.53Z" fill="white"/>
</svg>
